# Blender 5.1.1
# www.blender.org
mtllib polyp.mtl
o Sphere
v 0.000000 0.557187 0.000000
v 0.000000 0.475589 -0.328325
v 0.000000 0.385206 -0.428978
v 0.000000 0.171980 -0.428978
v 0.000000 0.021207 -0.177688
v 0.000000 0.000000 0.000000
v 0.067998 0.535980 -0.164163
v 0.125645 0.475589 -0.303333
v 0.164163 0.385206 -0.396324
v 0.177688 0.278593 -0.428978
v 0.164163 0.171980 -0.396324
v 0.125645 0.081598 -0.303333
v 0.067998 0.021207 -0.164163
v 0.125645 0.535980 -0.125645
v 0.232161 0.475589 -0.232161
v 0.303333 0.385206 -0.303333
v 0.328326 0.278593 -0.328325
v 0.303333 0.171980 -0.303333
v 0.232161 0.081598 -0.232161
v 0.125645 0.021207 -0.125645
v 0.164163 0.535980 -0.067998
v 0.303333 0.475589 -0.125645
v 0.396324 0.385206 -0.164163
v 0.428978 0.278593 -0.177688
v 0.396324 0.171980 -0.164163
v 0.303333 0.081598 -0.125645
v 0.164163 0.021207 -0.067998
v 0.177688 0.535980 0.000000
v 0.328325 0.475589 0.000000
v 0.428978 0.385206 0.000000
v 0.464322 0.278593 0.000000
v 0.428978 0.171980 0.000000
v 0.328325 0.081598 0.000000
v 0.177688 0.021207 0.000000
v 0.164163 0.535980 0.067998
v 0.303333 0.475589 0.125645
v 0.396324 0.385206 0.164163
v 0.428978 0.278593 0.177689
v 0.396324 0.171980 0.164163
v 0.303333 0.081598 0.125645
v 0.164163 0.021207 0.067998
v 0.125645 0.535980 0.125645
v 0.232161 0.475589 0.232161
v 0.303333 0.385206 0.303333
v 0.328325 0.278593 0.328326
v 0.303333 0.171980 0.303333
v 0.232161 0.081598 0.232161
v 0.125645 0.021207 0.125645
v 0.067998 0.535980 0.164163
v 0.125645 0.475589 0.303333
v 0.164163 0.385206 0.396324
v 0.177688 0.278593 0.428978
v 0.164163 0.171980 0.396324
v 0.125645 0.081598 0.303333
v 0.067998 0.021207 0.164163
v -0.000000 0.535980 0.177688
v -0.000000 0.475589 0.328325
v -0.000000 0.385206 0.428978
v -0.000000 0.278593 0.464322
v -0.000000 0.171980 0.428978
v -0.000000 0.081598 0.328325
v -0.000000 0.021207 0.177688
v -0.067998 0.535980 0.164163
v -0.125645 0.475589 0.303333
v -0.164163 0.385206 0.396324
v -0.177689 0.278593 0.428978
v -0.164163 0.171980 0.396324
v -0.125645 0.081598 0.303333
v -0.067998 0.021207 0.164163
v -0.125645 0.535980 0.125645
v -0.232161 0.475589 0.232161
v -0.303333 0.385206 0.303333
v -0.328326 0.278593 0.328325
v -0.303333 0.171980 0.303333
v -0.232161 0.081598 0.232161
v -0.125645 0.021207 0.125645
v -0.164163 0.535980 0.067998
v -0.303333 0.475589 0.125645
v -0.396324 0.385206 0.164163
v -0.428978 0.278593 0.177688
v -0.396324 0.171980 0.164163
v -0.303333 0.081598 0.125645
v -0.164163 0.021207 0.067998
v -0.177688 0.535980 -0.000000
v -0.328325 0.475589 -0.000000
v -0.428978 0.385206 -0.000000
v -0.464322 0.278593 -0.000000
v -0.428978 0.171980 -0.000000
v -0.328325 0.081598 -0.000000
v -0.177688 0.021207 -0.000000
v -0.164163 0.535980 -0.067998
v -0.303333 0.475589 -0.125645
v -0.396324 0.385206 -0.164163
v -0.428978 0.278593 -0.177689
v -0.396324 0.171980 -0.164163
v -0.303333 0.081598 -0.125645
v -0.164163 0.021207 -0.067998
v -0.125645 0.535980 -0.125645
v -0.232161 0.475589 -0.232161
v -0.303333 0.385206 -0.303333
v -0.328325 0.278593 -0.328326
v -0.303333 0.171980 -0.303333
v -0.232161 0.081598 -0.232161
v -0.125645 0.021207 -0.125645
v -0.067998 0.535980 -0.164163
v -0.125644 0.475589 -0.303333
v -0.164163 0.385206 -0.396324
v -0.177688 0.278593 -0.428978
v -0.164163 0.171980 -0.396324
v -0.125644 0.081598 -0.303333
v -0.067998 0.021207 -0.164163
v 0.000000 0.535980 -0.177688
v 0.000000 0.278593 -0.464322
v 0.000000 0.081598 -0.328325
v 0.000000 0.340503 -0.154774
v 0.000000 0.495277 -0.046432
v 0.109442 0.340503 -0.109442
v 0.032833 0.495277 -0.032833
v 0.154774 0.340503 0.000000
v 0.046432 0.495277 0.000000
v 0.109442 0.340503 0.109442
v 0.032833 0.495277 0.032833
v 0.000000 0.340503 0.154774
v 0.000000 0.495277 0.046432
v -0.109442 0.340503 0.109442
v -0.032833 0.495277 0.032833
v -0.154774 0.340503 0.000000
v -0.046432 0.495277 0.000000
v -0.109442 0.340503 -0.109442
v -0.032833 0.495277 -0.032833
v 0.371458 0.278593 -0.069648
v 1.013555 0.991715 -0.012382
v 0.416282 0.238233 -0.034824
v 1.021524 0.984540 -0.006191
v 0.416282 0.238233 0.034824
v 1.021524 0.984540 0.006191
v 0.371458 0.278593 0.069648
v 1.013555 0.991715 0.012382
v 0.326633 0.318954 0.034824
v 1.005586 0.998890 0.006191
v 0.326633 0.318954 -0.034824
v 1.005586 0.998890 -0.006191
v 0.313946 0.255291 -0.250905
v 0.876387 0.987572 -0.518364
v 0.366516 0.231990 -0.211608
v 0.885733 0.983430 -0.511378
v 0.374263 0.255291 -0.146432
v 0.887110 0.987572 -0.499792
v 0.329438 0.301895 -0.120553
v 0.879142 0.995857 -0.495191
v 0.276868 0.325197 -0.159850
v 0.869796 1.000000 -0.502177
v 0.269121 0.301895 -0.225025
v 0.868419 0.995857 -0.513764
v 0.177983 0.238233 -0.377923
v 0.505400 0.984540 -0.887761
v 0.238300 0.238233 -0.343099
v 0.516124 0.984540 -0.881570
v 0.246046 0.278593 -0.286868
v 0.517501 0.991715 -0.871574
v 0.193475 0.318954 -0.265461
v 0.508155 0.998890 -0.867768
v 0.133158 0.318954 -0.300285
v 0.497432 0.998890 -0.873959
v 0.125412 0.278593 -0.356516
v 0.496055 0.991715 -0.883955
v 0.000000 0.231990 -0.423217
v 0.000000 0.983430 -1.022757
v 0.060317 0.255291 -0.397337
v 0.010723 0.987572 -1.018156
v 0.060317 0.301895 -0.345578
v 0.010723 0.995857 -1.008954
v 0.000000 0.325197 -0.319699
v 0.000000 1.000000 -1.004354
v -0.060317 0.301895 -0.345578
v -0.010723 0.995857 -1.008954
v -0.060317 0.255291 -0.397337
v -0.010723 0.987572 -1.018156
v -0.177983 0.238233 -0.377923
v -0.505400 0.984540 -0.887761
v -0.125412 0.278593 -0.356516
v -0.496055 0.991715 -0.883955
v -0.133158 0.318954 -0.300285
v -0.497432 0.998890 -0.873959
v -0.193475 0.318954 -0.265461
v -0.508155 0.998890 -0.867768
v -0.246046 0.278593 -0.286868
v -0.517501 0.991715 -0.871574
v -0.238300 0.238233 -0.343099
v -0.516124 0.984540 -0.881570
v -0.313946 0.255291 -0.250905
v -0.876387 0.987572 -0.518364
v -0.269121 0.301895 -0.225025
v -0.868419 0.995857 -0.513764
v -0.276868 0.325197 -0.159850
v -0.869796 1.000000 -0.502177
v -0.329438 0.301895 -0.120553
v -0.879142 0.995857 -0.495191
v -0.374263 0.255291 -0.146432
v -0.887110 0.987572 -0.499792
v -0.366516 0.231990 -0.211608
v -0.885733 0.983430 -0.511378
v -0.371458 0.278593 -0.069648
v -1.013555 0.991715 -0.012382
v -0.326633 0.318954 -0.034824
v -1.005586 0.998890 -0.006191
v -0.326633 0.318954 0.034824
v -1.005586 0.998890 0.006191
v -0.371458 0.278593 0.069648
v -1.013555 0.991715 0.012382
v -0.416282 0.238233 0.034824
v -1.021524 0.984540 0.006191
v -0.416282 0.238233 -0.034824
v -1.021524 0.984540 -0.006191
v -0.329438 0.301895 0.120553
v -0.879142 0.995857 0.495191
v -0.276868 0.325197 0.159850
v -0.869796 1.000000 0.502177
v -0.269121 0.301895 0.225025
v -0.868419 0.995857 0.513764
v -0.313946 0.255291 0.250905
v -0.876387 0.987572 0.518364
v -0.366516 0.231990 0.211608
v -0.885733 0.983430 0.511378
v -0.374263 0.255291 0.146432
v -0.887110 0.987572 0.499792
v -0.193475 0.318954 0.265461
v -0.508155 0.998890 0.867768
v -0.133158 0.318954 0.300285
v -0.497432 0.998890 0.873959
v -0.125412 0.278593 0.356516
v -0.496055 0.991715 0.883955
v -0.177983 0.238233 0.377923
v -0.505400 0.984540 0.887761
v -0.238300 0.238233 0.343099
v -0.516124 0.984540 0.881570
v -0.246046 0.278593 0.286868
v -0.517501 0.991715 0.871574
v -0.000000 0.325197 0.319699
v -0.000000 1.000000 1.004354
v 0.060317 0.301895 0.345578
v 0.010723 0.995857 1.008954
v 0.060317 0.255291 0.397337
v 0.010723 0.987572 1.018156
v -0.000000 0.231990 0.423217
v -0.000000 0.983430 1.022757
v -0.060317 0.255291 0.397337
v -0.010723 0.987572 1.018156
v -0.060317 0.301895 0.345578
v -0.010723 0.995857 1.008954
v 0.193475 0.318954 0.265461
v 0.508155 0.998890 0.867768
v 0.246046 0.278593 0.286868
v 0.517501 0.991715 0.871574
v 0.238300 0.238233 0.343099
v 0.516124 0.984540 0.881570
v 0.177983 0.238233 0.377923
v 0.505400 0.984540 0.887761
v 0.125412 0.278593 0.356516
v 0.496055 0.991715 0.883955
v 0.133158 0.318954 0.300285
v 0.497432 0.998890 0.873959
v 0.329438 0.301895 0.120553
v 0.879142 0.995857 0.495191
v 0.374263 0.255291 0.146432
v 0.887110 0.987572 0.499792
v 0.366516 0.231990 0.211608
v 0.885733 0.983430 0.511378
v 0.313946 0.255291 0.250905
v 0.876387 0.987572 0.518364
v 0.269121 0.301895 0.225025
v 0.868419 0.995857 0.513764
v 0.276868 0.325197 0.159850
v 0.869796 1.000000 0.502177
vn -0.0000 1.0000 -0.0000
vn -0.0000 0.8394 -0.5435
vn -0.0000 0.5336 -0.8458
vn -0.0000 -0.5336 -0.8458
vn -0.0000 -0.9649 -0.2627
vn -0.0000 -1.0000 -0.0000
vn 0.1005 0.9649 -0.2427
vn 0.2080 0.8394 -0.5022
vn 0.3237 0.5336 -0.7814
vn 0.3827 -0.0000 -0.9239
vn 0.3237 -0.5336 -0.7814
vn 0.2080 -0.8394 -0.5022
vn 0.1005 -0.9649 -0.2427
vn 0.1857 0.9649 -0.1857
vn 0.3843 0.8394 -0.3843
vn 0.5980 0.5336 -0.5980
vn 0.7071 -0.0000 -0.7071
vn 0.5980 -0.5336 -0.5980
vn 0.3843 -0.8394 -0.3843
vn 0.1857 -0.9649 -0.1857
vn 0.2427 0.9649 -0.1005
vn 0.5022 0.8394 -0.2080
vn 0.7814 0.5336 -0.3237
vn 0.9239 -0.0000 -0.3827
vn 0.7814 -0.5336 -0.3237
vn 0.5022 -0.8394 -0.2080
vn 0.2427 -0.9649 -0.1005
vn 0.2627 0.9649 -0.0000
vn 0.5435 0.8394 -0.0000
vn 0.8458 0.5336 -0.0000
vn 1.0000 -0.0000 -0.0000
vn 0.8458 -0.5336 -0.0000
vn 0.5435 -0.8394 -0.0000
vn 0.2627 -0.9649 -0.0000
vn 0.2427 0.9649 0.1005
vn 0.5022 0.8394 0.2080
vn 0.7814 0.5336 0.3237
vn 0.9239 -0.0000 0.3827
vn 0.7814 -0.5336 0.3237
vn 0.5022 -0.8394 0.2080
vn 0.2427 -0.9649 0.1005
vn 0.1857 0.9649 0.1857
vn 0.3843 0.8394 0.3843
vn 0.5980 0.5336 0.5980
vn 0.7071 -0.0000 0.7071
vn 0.5980 -0.5336 0.5980
vn 0.3843 -0.8394 0.3843
vn 0.1857 -0.9649 0.1857
vn 0.1005 0.9649 0.2427
vn 0.2080 0.8394 0.5022
vn 0.3237 0.5336 0.7814
vn 0.3827 -0.0000 0.9239
vn 0.3237 -0.5336 0.7814
vn 0.2080 -0.8394 0.5022
vn 0.1005 -0.9649 0.2427
vn -0.0000 0.9649 0.2627
vn -0.0000 0.8394 0.5435
vn -0.0000 0.5336 0.8458
vn -0.0000 -0.0000 1.0000
vn -0.0000 -0.5336 0.8458
vn -0.0000 -0.8394 0.5435
vn -0.0000 -0.9649 0.2627
vn -0.1005 0.9649 0.2427
vn -0.2080 0.8394 0.5022
vn -0.3237 0.5336 0.7814
vn -0.3827 -0.0000 0.9239
vn -0.3237 -0.5336 0.7814
vn -0.2080 -0.8394 0.5022
vn -0.1005 -0.9649 0.2427
vn -0.1857 0.9649 0.1857
vn -0.3843 0.8394 0.3843
vn -0.5980 0.5336 0.5980
vn -0.7071 -0.0000 0.7071
vn -0.5980 -0.5336 0.5980
vn -0.3843 -0.8394 0.3843
vn -0.1857 -0.9649 0.1857
vn -0.2427 0.9649 0.1005
vn -0.5022 0.8394 0.2080
vn -0.7814 0.5336 0.3237
vn -0.9239 -0.0000 0.3827
vn -0.7814 -0.5336 0.3237
vn -0.5022 -0.8394 0.2080
vn -0.2427 -0.9649 0.1005
vn -0.2627 0.9649 -0.0000
vn -0.5435 0.8394 -0.0000
vn -0.8458 0.5336 -0.0000
vn -1.0000 -0.0000 -0.0000
vn -0.8458 -0.5336 -0.0000
vn -0.5435 -0.8394 -0.0000
vn -0.2627 -0.9649 -0.0000
vn -0.2427 0.9649 -0.1005
vn -0.5022 0.8394 -0.2080
vn -0.7814 0.5336 -0.3237
vn -0.9239 -0.0000 -0.3827
vn -0.7814 -0.5336 -0.3237
vn -0.5022 -0.8394 -0.2080
vn -0.2427 -0.9649 -0.1005
vn -0.1857 0.9649 -0.1857
vn -0.3843 0.8394 -0.3843
vn -0.5980 0.5336 -0.5980
vn -0.7071 -0.0000 -0.7071
vn -0.5980 -0.5336 -0.5980
vn -0.3843 -0.8394 -0.3843
vn -0.1857 -0.9649 -0.1857
vn -0.1005 0.9649 -0.2427
vn -0.2080 0.8394 -0.5022
vn -0.3237 0.5336 -0.7814
vn -0.3827 -0.0000 -0.9239
vn -0.3237 -0.5336 -0.7814
vn -0.2080 -0.8394 -0.5022
vn -0.1005 -0.9649 -0.2427
vn -0.0000 0.9649 -0.2627
vn -0.0000 -0.0000 -1.0000
vn -0.0000 -0.8394 -0.5435
vn -0.0000 -0.3913 -0.9202
vn -0.0000 0.8399 -0.5428
vn 0.6507 -0.3913 -0.6507
vn 0.3838 0.8399 -0.3838
vn 0.9202 -0.3913 -0.0000
vn 0.5428 0.8399 -0.0000
vn 0.6507 -0.3913 0.6507
vn 0.3838 0.8399 0.3838
vn -0.0000 -0.3913 0.9202
vn -0.0000 0.8399 0.5428
vn -0.6507 -0.3913 0.6507
vn -0.3838 0.8399 0.3838
vn -0.9202 -0.3913 -0.0000
vn -0.5428 0.8399 -0.0000
vn -0.6507 -0.3913 -0.6507
vn -0.3838 0.8399 -0.3838
vn -0.3931 -0.4366 -0.8092
vn 0.4231 0.4699 -0.7747
vn 0.1277 -0.9055 -0.4046
vn 0.9217 0.0210 -0.3874
vn 0.1277 -0.9055 0.4046
vn 0.9217 0.0210 0.3874
vn -0.3931 -0.4366 0.8092
vn 0.4231 0.4699 0.7747
vn -0.9139 0.0323 0.4046
vn -0.0755 0.9188 0.3874
vn -0.9139 0.0323 -0.4046
vn -0.0755 0.9188 -0.3874
vn -0.4305 -0.7073 -0.5607
vn 0.2802 0.2107 -0.9365
vn 0.1803 -0.9781 -0.1041
vn 0.8650 -0.0485 -0.4994
vn 0.2703 -0.7073 0.6531
vn 0.9512 0.2107 0.2256
vn -0.2505 -0.1659 0.9538
vn 0.4526 0.7291 0.5134
vn -0.8613 0.1049 0.4972
vn -0.1322 0.9883 0.0763
vn -0.9513 -0.1659 -0.2600
vn -0.2183 0.7291 -0.6487
vn -0.2866 -0.9055 -0.3129
vn 0.1254 0.0210 -0.9919
vn 0.4142 -0.9055 0.0917
vn 0.7963 0.0210 -0.6045
vn 0.5042 -0.4366 0.7451
vn 0.8825 0.4699 0.0209
vn -0.1066 0.0323 0.9938
vn 0.2977 0.9188 0.2591
vn -0.8074 0.0323 0.5892
vn -0.3732 0.9188 -0.1283
vn -0.8974 -0.4366 -0.0641
vn -0.4594 0.4699 -0.7538
vn -0.0000 -0.9781 -0.2082
vn -0.0000 -0.0485 -0.9988
vn 0.7008 -0.7073 0.0924
vn 0.6709 0.2107 -0.7110
vn 0.7008 -0.1659 0.6938
vn 0.6709 0.7291 -0.1352
vn -0.0000 0.1049 0.9945
vn -0.0000 0.9883 0.1526
vn -0.7008 -0.1659 0.6938
vn -0.6709 0.7291 -0.1352
vn -0.7008 -0.7073 0.0924
vn -0.6709 0.2107 -0.7110
vn 0.2866 -0.9055 -0.3129
vn -0.1254 0.0210 -0.9919
vn 0.8974 -0.4366 -0.0641
vn 0.4594 0.4699 -0.7538
vn 0.8074 0.0323 0.5892
vn 0.3732 0.9188 -0.1283
vn 0.1066 0.0323 0.9938
vn -0.2977 0.9188 0.2591
vn -0.5042 -0.4366 0.7451
vn -0.8825 0.4699 0.0209
vn -0.4142 -0.9055 0.0917
vn -0.7963 0.0210 -0.6045
vn 0.4305 -0.7073 -0.5607
vn -0.2802 0.2107 -0.9365
vn 0.9513 -0.1659 -0.2600
vn 0.2183 0.7291 -0.6487
vn 0.8613 0.1049 0.4972
vn 0.1322 0.9883 0.0763
vn 0.2505 -0.1659 0.9538
vn -0.4526 0.7291 0.5134
vn -0.2703 -0.7073 0.6531
vn -0.9512 0.2107 0.2256
vn -0.1803 -0.9781 -0.1041
vn -0.8650 -0.0485 -0.4994
vn 0.3931 -0.4366 -0.8092
vn -0.4231 0.4699 -0.7747
vn 0.9139 0.0323 -0.4046
vn 0.0755 0.9188 -0.3874
vn 0.9139 0.0323 0.4046
vn 0.0755 0.9188 0.3874
vn 0.3931 -0.4366 0.8092
vn -0.4231 0.4699 0.7747
vn -0.1277 -0.9055 0.4046
vn -0.9217 0.0210 0.3874
vn -0.1277 -0.9055 -0.4046
vn -0.9217 0.0210 -0.3874
vn 0.2505 -0.1659 -0.9538
vn -0.4526 0.7291 -0.5134
vn 0.8613 0.1049 -0.4972
vn 0.1322 0.9883 -0.0763
vn 0.9513 -0.1659 0.2600
vn 0.2183 0.7291 0.6487
vn 0.4305 -0.7073 0.5607
vn -0.2802 0.2107 0.9365
vn -0.1803 -0.9781 0.1041
vn -0.8650 -0.0485 0.4994
vn -0.2703 -0.7073 -0.6531
vn -0.9512 0.2107 -0.2256
vn 0.1066 0.0323 -0.9938
vn -0.2977 0.9188 -0.2591
vn 0.8074 0.0323 -0.5892
vn 0.3732 0.9188 0.1283
vn 0.8974 -0.4366 0.0641
vn 0.4594 0.4699 0.7538
vn 0.2866 -0.9055 0.3129
vn -0.1254 0.0210 0.9919
vn -0.4142 -0.9055 -0.0917
vn -0.7963 0.0210 0.6045
vn -0.5042 -0.4366 -0.7451
vn -0.8825 0.4699 -0.0209
vn -0.0000 0.1049 -0.9945
vn -0.0000 0.9883 -0.1526
vn 0.7008 -0.1659 -0.6938
vn 0.6709 0.7291 0.1352
vn 0.7008 -0.7073 -0.0924
vn 0.6709 0.2107 0.7110
vn -0.0000 -0.9781 0.2082
vn -0.0000 -0.0485 0.9988
vn -0.7008 -0.7073 -0.0924
vn -0.6709 0.2107 0.7110
vn -0.7008 -0.1659 -0.6938
vn -0.6709 0.7291 0.1352
vn -0.1066 0.0323 -0.9938
vn 0.2977 0.9188 -0.2591
vn 0.5042 -0.4366 -0.7451
vn 0.8825 0.4699 -0.0209
vn 0.4142 -0.9055 -0.0917
vn 0.7963 0.0210 0.6045
vn -0.2866 -0.9055 0.3129
vn 0.1254 0.0210 0.9919
vn -0.8974 -0.4366 0.0641
vn -0.4594 0.4699 0.7538
vn -0.8074 0.0323 -0.5892
vn -0.3732 0.9188 0.1283
vn -0.2505 -0.1659 -0.9538
vn 0.4526 0.7291 -0.5134
vn 0.2703 -0.7073 -0.6531
vn 0.9512 0.2107 -0.2256
vn 0.1803 -0.9781 0.1041
vn 0.8650 -0.0485 0.4994
vn -0.4305 -0.7073 0.5607
vn 0.2802 0.2107 0.9365
vn -0.9513 -0.1659 0.2600
vn -0.2183 0.7291 0.6487
vn -0.8613 0.1049 -0.4972
vn -0.1322 0.9883 -0.0763
vt 0.718750 0.000000
vt 0.750000 0.125000
vt 0.687500 0.125000
vt 0.750000 0.250000
vt 0.750000 0.375000
vt 0.687500 0.375000
vt 0.687500 0.250000
vt 0.750000 0.500000
vt 0.750000 0.625000
vt 0.687500 0.625000
vt 0.687500 0.500000
vt 0.750000 0.750000
vt 0.750000 0.875000
vt 0.687500 0.875000
vt 0.687500 0.750000
vt 0.718750 1.000000
vt 0.625000 0.875000
vt 0.625000 0.750000
vt 0.625000 0.250000
vt 0.625000 0.125000
vt 0.625000 0.500000
vt 0.625000 0.375000
vt 0.625000 0.625000
vt 0.656250 1.000000
vt 0.656250 0.000000
vt 0.562500 0.250000
vt 0.562500 0.125000
vt 0.562500 0.500000
vt 0.562500 0.375000
vt 0.562500 0.750000
vt 0.562500 0.625000
vt 0.593750 1.000000
vt 0.562500 0.875000
vt 0.593750 0.000000
vt 0.531250 1.000000
vt 0.500000 0.875000
vt 0.531250 0.000000
vt 0.500000 0.125000
vt 0.500000 0.375000
vt 0.500000 0.250000
vt 0.500000 0.625000
vt 0.500000 0.500000
vt 0.500000 0.750000
vt 0.437500 0.375000
vt 0.437500 0.250000
vt 0.437500 0.625000
vt 0.437500 0.500000
vt 0.437500 0.875000
vt 0.437500 0.750000
vt 0.437500 0.125000
vt 0.468750 1.000000
vt 0.468750 0.000000
vt 0.375000 0.250000
vt 0.375000 0.125000
vt 0.375000 0.500000
vt 0.375000 0.375000
vt 0.375000 0.750000
vt 0.375000 0.625000
vt 0.406250 1.000000
vt 0.375000 0.875000
vt 0.406250 0.000000
vt 0.312500 0.500000
vt 0.312500 0.375000
vt 0.312500 0.750000
vt 0.312500 0.625000
vt 0.343750 1.000000
vt 0.312500 0.875000
vt 0.343750 0.000000
vt 0.312500 0.125000
vt 0.312500 0.250000
vt 0.281250 0.000000
vt 0.250000 0.125000
vt 0.250000 0.375000
vt 0.250000 0.250000
vt 0.250000 0.625000
vt 0.250000 0.500000
vt 0.250000 0.875000
vt 0.250000 0.750000
vt 0.281250 1.000000
vt 0.187500 0.625000
vt 0.187500 0.500000
vt 0.187500 0.875000
vt 0.187500 0.750000
vt 0.187500 0.250000
vt 0.187500 0.125000
vt 0.187500 0.375000
vt 0.218750 1.000000
vt 0.218750 0.000000
vt 0.125000 0.250000
vt 0.125000 0.125000
vt 0.125000 0.500000
vt 0.125000 0.375000
vt 0.125000 0.750000
vt 0.125000 0.625000
vt 0.156250 1.000000
vt 0.125000 0.875000
vt 0.156250 0.000000
vt 0.062500 0.750000
vt 0.062500 0.625000
vt 0.093750 1.000000
vt 0.062500 0.875000
vt 0.093750 0.000000
vt 0.062500 0.125000
vt 0.062500 0.375000
vt 0.062500 0.250000
vt 0.062500 0.500000
vt 0.031250 0.000000
vt 0.000000 0.125000
vt 0.000000 0.375000
vt 0.000000 0.250000
vt 0.000000 0.625000
vt 0.000000 0.500000
vt 0.000000 0.875000
vt 0.000000 0.750000
vt 0.031250 1.000000
vt 1.000000 0.750000
vt 1.000000 0.875000
vt 0.937500 0.875000
vt 0.937500 0.750000
vt 1.000000 0.125000
vt 1.000000 0.250000
vt 0.937500 0.250000
vt 0.937500 0.125000
vt 1.000000 0.375000
vt 1.000000 0.500000
vt 0.937500 0.500000
vt 0.937500 0.375000
vt 1.000000 0.625000
vt 0.937500 0.625000
vt 0.968750 1.000000
vt 0.968750 0.000000
vt 0.875000 0.250000
vt 0.875000 0.125000
vt 0.875000 0.500000
vt 0.875000 0.375000
vt 0.875000 0.750000
vt 0.875000 0.625000
vt 0.906250 1.000000
vt 0.875000 0.875000
vt 0.906250 0.000000
vt 0.843750 1.000000
vt 0.812500 0.875000
vt 0.843750 0.000000
vt 0.812500 0.125000
vt 0.812500 0.375000
vt 0.812500 0.250000
vt 0.812500 0.625000
vt 0.812500 0.500000
vt 0.812500 0.750000
vt 0.781250 1.000000
vt 0.781250 0.000000
vt 1.000000 1.000000
vt 0.875000 1.000000
vt 0.875000 0.500000
vt 0.750000 1.000000
vt 0.750000 0.500000
vt 0.625000 1.000000
vt 0.500000 1.000000
vt 0.500000 0.500000
vt 0.375000 1.000000
vt 0.250000 1.000000
vt 0.250000 0.500000
vt 0.419706 0.419706
vt 0.250000 0.490000
vt 0.080294 0.419706
vt 0.010000 0.250000
vt 0.080294 0.080294
vt 0.250000 0.010000
vt 0.419706 0.080294
vt 0.490000 0.250000
vt 0.125000 1.000000
vt 0.125000 0.500000
vt 0.000000 1.000000
vt 0.750000 0.490000
vt 0.919706 0.419706
vt 0.990000 0.250000
vt 0.919706 0.080294
vt 0.750000 0.010000
vt 0.580294 0.080294
vt 0.510000 0.250000
vt 0.580294 0.419706
vt 0.833333 1.000000
vt 0.833333 0.500000
vt 0.666667 1.000000
vt 0.666667 0.500000
vt 0.500000 1.000000
vt 0.500000 0.500000
vt 0.333333 1.000000
vt 0.333333 0.500000
vt 0.457846 0.370000
vt 0.042154 0.370000
vt 0.042154 0.130000
vt 0.457846 0.130000
vt 0.166667 1.000000
vt 0.166667 0.500000
vt -0.000000 1.000000
vt -0.000000 0.500000
vt 0.957846 0.370000
vt 0.957846 0.130000
vt 0.542154 0.130000
vt 0.542154 0.370000
s 1
f 6/1/6 5/2/5 13/3/13
f 114/4/114 4/5/4 11/6/11 12/7/12
f 113/8/113 3/9/3 9/10/9 10/11/10
f 2/12/2 112/13/112 7/14/7 8/15/8
f 5/2/5 114/4/114 12/7/12 13/3/13
f 4/5/4 113/8/113 10/11/10 11/6/11
f 3/9/3 2/12/2 8/15/8 9/10/9
f 112/13/112 1/16/1 7/14/7
f 8/15/8 7/14/7 14/17/14 15/18/15
f 13/3/13 12/7/12 19/19/19 20/20/20
f 11/6/11 10/11/10 17/21/17 18/22/18
f 9/10/9 8/15/8 15/18/15 16/23/16
f 7/14/7 1/24/1 14/17/14
f 6/25/6 13/3/13 20/20/20
f 12/7/12 11/6/11 18/22/18 19/19/19
f 10/11/10 9/10/9 16/23/16 17/21/17
f 20/20/20 19/19/19 26/26/26 27/27/27
f 18/22/18 17/21/17 24/28/24 25/29/25
f 16/23/16 15/18/15 22/30/22 23/31/23
f 14/17/14 1/32/1 21/33/21
f 6/34/6 20/20/20 27/27/27
f 19/19/19 18/22/18 25/29/25 26/26/26
f 17/21/17 16/23/16 23/31/23 24/28/24
f 15/18/15 14/17/14 21/33/21 22/30/22
f 21/33/21 1/35/1 28/36/28
f 6/37/6 27/27/27 34/38/34
f 26/26/26 25/29/25 32/39/32 33/40/33
f 24/28/24 23/31/23 30/41/30 31/42/31
f 22/30/22 21/33/21 28/36/28 29/43/29
f 27/27/27 26/26/26 33/40/33 34/38/34
f 25/29/25 24/28/24 31/42/31 32/39/32
f 23/31/23 22/30/22 29/43/29 30/41/30
f 33/40/33 32/39/32 39/44/39 40/45/40
f 31/42/31 30/41/30 37/46/37 38/47/38
f 29/43/29 28/36/28 35/48/35 36/49/36
f 34/38/34 33/40/33 40/45/40 41/50/41
f 32/39/32 31/42/31 38/47/38 39/44/39
f 30/41/30 29/43/29 36/49/36 37/46/37
f 28/36/28 1/51/1 35/48/35
f 6/52/6 34/38/34 41/50/41
f 41/50/41 40/45/40 47/53/47 48/54/48
f 39/44/39 38/47/38 45/55/45 46/56/46
f 37/46/37 36/49/36 43/57/43 44/58/44
f 35/48/35 1/59/1 42/60/42
f 6/61/6 41/50/41 48/54/48
f 40/45/40 39/44/39 46/56/46 47/53/47
f 38/47/38 37/46/37 44/58/44 45/55/45
f 36/49/36 35/48/35 42/60/42 43/57/43
f 46/56/46 45/55/45 52/62/52 53/63/53
f 44/58/44 43/57/43 50/64/50 51/65/51
f 42/60/42 1/66/1 49/67/49
f 6/68/6 48/54/48 55/69/55
f 47/53/47 46/56/46 53/63/53 54/70/54
f 45/55/45 44/58/44 51/65/51 52/62/52
f 43/57/43 42/60/42 49/67/49 50/64/50
f 48/54/48 47/53/47 54/70/54 55/69/55
f 6/71/6 55/69/55 62/72/62
f 54/70/54 53/63/53 60/73/60 61/74/61
f 52/62/52 51/65/51 58/75/58 59/76/59
f 50/64/50 49/67/49 56/77/56 57/78/57
f 55/69/55 54/70/54 61/74/61 62/72/62
f 53/63/53 52/62/52 59/76/59 60/73/60
f 51/65/51 50/64/50 57/78/57 58/75/58
f 49/67/49 1/79/1 56/77/56
f 59/76/59 58/75/58 65/80/65 66/81/66
f 57/78/57 56/77/56 63/82/63 64/83/64
f 62/72/62 61/74/61 68/84/68 69/85/69
f 60/73/60 59/76/59 66/81/66 67/86/67
f 58/75/58 57/78/57 64/83/64 65/80/65
f 56/77/56 1/87/1 63/82/63
f 6/88/6 62/72/62 69/85/69
f 61/74/61 60/73/60 67/86/67 68/84/68
f 69/85/69 68/84/68 75/89/75 76/90/76
f 67/86/67 66/81/66 73/91/73 74/92/74
f 65/80/65 64/83/64 71/93/71 72/94/72
f 63/82/63 1/95/1 70/96/70
f 6/97/6 69/85/69 76/90/76
f 68/84/68 67/86/67 74/92/74 75/89/75
f 66/81/66 65/80/65 72/94/72 73/91/73
f 64/83/64 63/82/63 70/96/70 71/93/71
f 72/94/72 71/93/71 78/98/78 79/99/79
f 70/96/70 1/100/1 77/101/77
f 6/102/6 76/90/76 83/103/83
f 75/89/75 74/92/74 81/104/81 82/105/82
f 73/91/73 72/94/72 79/99/79 80/106/80
f 71/93/71 70/96/70 77/101/77 78/98/78
f 76/90/76 75/89/75 82/105/82 83/103/83
f 74/92/74 73/91/73 80/106/80 81/104/81
f 6/107/6 83/103/83 90/108/90
f 82/105/82 81/104/81 88/109/88 89/110/89
f 80/106/80 79/99/79 86/111/86 87/112/87
f 78/98/78 77/101/77 84/113/84 85/114/85
f 83/103/83 82/105/82 89/110/89 90/108/90
f 81/104/81 80/106/80 87/112/87 88/109/88
f 79/99/79 78/98/78 85/114/85 86/111/86
f 77/101/77 1/115/1 84/113/84
f 85/116/85 84/117/84 91/118/91 92/119/92
f 90/120/90 89/121/89 96/122/96 97/123/97
f 88/124/88 87/125/87 94/126/94 95/127/95
f 86/128/86 85/116/85 92/119/92 93/129/93
f 84/117/84 1/130/1 91/118/91
f 6/131/6 90/120/90 97/123/97
f 89/121/89 88/124/88 95/127/95 96/122/96
f 87/125/87 86/128/86 93/129/93 94/126/94
f 97/123/97 96/122/96 103/132/103 104/133/104
f 95/127/95 94/126/94 101/134/101 102/135/102
f 93/129/93 92/119/92 99/136/99 100/137/100
f 91/118/91 1/138/1 98/139/98
f 6/140/6 97/123/97 104/133/104
f 96/122/96 95/127/95 102/135/102 103/132/103
f 94/126/94 93/129/93 100/137/100 101/134/101
f 92/119/92 91/118/91 98/139/98 99/136/99
f 98/139/98 1/141/1 105/142/105
f 6/143/6 104/133/104 111/144/111
f 103/132/103 102/135/102 109/145/109 110/146/110
f 101/134/101 100/137/100 107/147/107 108/148/108
f 99/136/99 98/139/98 105/142/105 106/149/106
f 104/133/104 103/132/103 110/146/110 111/144/111
f 102/135/102 101/134/101 108/148/108 109/145/109
f 100/137/100 99/136/99 106/149/106 107/147/107
f 110/146/110 109/145/109 4/5/4 114/4/114
f 108/148/108 107/147/107 3/9/3 113/8/113
f 106/149/106 105/142/105 112/13/112 2/12/2
f 111/144/111 110/146/110 114/4/114 5/2/5
f 109/145/109 108/148/108 113/8/113 4/5/4
f 107/147/107 106/149/106 2/12/2 3/9/3
f 105/142/105 1/150/1 112/13/112
f 6/151/6 111/144/111 5/2/5
f 115/125/115 116/152/116 118/153/118 117/154/117
f 117/154/117 118/153/118 120/155/120 119/156/119
f 119/156/119 120/155/120 122/157/122 121/21/121
f 121/21/121 122/157/122 124/158/124 123/159/123
f 123/159/123 124/158/124 126/160/126 125/55/125
f 125/55/125 126/160/126 128/161/128 127/162/127
f 118/163/118 116/164/116 130/165/130 128/166/128 126/167/126 124/168/124 122/169/122 120/170/120
f 127/162/127 128/161/128 130/171/130 129/172/129
f 129/172/129 130/171/130 116/173/116 115/112/115
f 115/174/115 117/175/117 119/176/119 121/177/121 123/178/123 125/179/125 127/180/127 129/181/129
f 131/125/131 132/152/132 134/182/134 133/183/133
f 133/183/133 134/182/134 136/184/136 135/185/135
f 135/185/135 136/184/136 138/186/138 137/187/137
f 137/187/137 138/186/138 140/188/140 139/189/139
f 134/190/134 132/164/132 142/191/142 140/192/140 138/168/138 136/193/136
f 139/189/139 140/188/140 142/194/142 141/195/141
f 141/195/141 142/194/142 132/196/132 131/197/131
f 131/174/131 133/198/133 135/199/135 137/178/137 139/200/139 141/201/141
f 143/125/143 144/152/144 146/182/146 145/183/145
f 145/183/145 146/182/146 148/184/148 147/185/147
f 147/185/147 148/184/148 150/186/150 149/187/149
f 149/187/149 150/186/150 152/188/152 151/189/151
f 146/190/146 144/164/144 154/191/154 152/192/152 150/168/150 148/193/148
f 151/189/151 152/188/152 154/194/154 153/195/153
f 153/195/153 154/194/154 144/196/144 143/197/143
f 143/174/143 145/198/145 147/199/147 149/178/149 151/200/151 153/201/153
f 155/125/155 156/152/156 158/182/158 157/183/157
f 157/183/157 158/182/158 160/184/160 159/185/159
f 159/185/159 160/184/160 162/186/162 161/187/161
f 161/187/161 162/186/162 164/188/164 163/189/163
f 158/190/158 156/164/156 166/191/166 164/192/164 162/168/162 160/193/160
f 163/189/163 164/188/164 166/194/166 165/195/165
f 165/195/165 166/194/166 156/196/156 155/197/155
f 155/174/155 157/198/157 159/199/159 161/178/161 163/200/163 165/201/165
f 167/125/167 168/152/168 170/182/170 169/183/169
f 169/183/169 170/182/170 172/184/172 171/185/171
f 171/185/171 172/184/172 174/186/174 173/187/173
f 173/187/173 174/186/174 176/188/176 175/189/175
f 170/190/170 168/164/168 178/191/178 176/192/176 174/168/174 172/193/172
f 175/189/175 176/188/176 178/194/178 177/195/177
f 177/195/177 178/194/178 168/196/168 167/197/167
f 167/174/167 169/198/169 171/199/171 173/178/173 175/200/175 177/201/177
f 179/125/179 180/152/180 182/182/182 181/183/181
f 181/183/181 182/182/182 184/184/184 183/185/183
f 183/185/183 184/184/184 186/186/186 185/187/185
f 185/187/185 186/186/186 188/188/188 187/189/187
f 182/190/182 180/164/180 190/191/190 188/192/188 186/168/186 184/193/184
f 187/189/187 188/188/188 190/194/190 189/195/189
f 189/195/189 190/194/190 180/196/180 179/197/179
f 179/174/179 181/198/181 183/199/183 185/178/185 187/200/187 189/201/189
f 191/125/191 192/152/192 194/182/194 193/183/193
f 193/183/193 194/182/194 196/184/196 195/185/195
f 195/185/195 196/184/196 198/186/198 197/187/197
f 197/187/197 198/186/198 200/188/200 199/189/199
f 194/190/194 192/164/192 202/191/202 200/192/200 198/168/198 196/193/196
f 199/189/199 200/188/200 202/194/202 201/195/201
f 201/195/201 202/194/202 192/196/192 191/197/191
f 191/174/191 193/198/193 195/199/195 197/178/197 199/200/199 201/201/201
f 203/125/203 204/152/204 206/182/206 205/183/205
f 205/183/205 206/182/206 208/184/208 207/185/207
f 207/185/207 208/184/208 210/186/210 209/187/209
f 209/187/209 210/186/210 212/188/212 211/189/211
f 206/190/206 204/164/204 214/191/214 212/192/212 210/168/210 208/193/208
f 211/189/211 212/188/212 214/194/214 213/195/213
f 213/195/213 214/194/214 204/196/204 203/197/203
f 203/174/203 205/198/205 207/199/207 209/178/209 211/200/211 213/201/213
f 215/125/215 216/152/216 218/182/218 217/183/217
f 217/183/217 218/182/218 220/184/220 219/185/219
f 219/185/219 220/184/220 222/186/222 221/187/221
f 221/187/221 222/186/222 224/188/224 223/189/223
f 218/190/218 216/164/216 226/191/226 224/192/224 222/168/222 220/193/220
f 223/189/223 224/188/224 226/194/226 225/195/225
f 225/195/225 226/194/226 216/196/216 215/197/215
f 215/174/215 217/198/217 219/199/219 221/178/221 223/200/223 225/201/225
f 227/125/227 228/152/228 230/182/230 229/183/229
f 229/183/229 230/182/230 232/184/232 231/185/231
f 231/185/231 232/184/232 234/186/234 233/187/233
f 233/187/233 234/186/234 236/188/236 235/189/235
f 230/190/230 228/164/228 238/191/238 236/192/236 234/168/234 232/193/232
f 235/189/235 236/188/236 238/194/238 237/195/237
f 237/195/237 238/194/238 228/196/228 227/197/227
f 227/174/227 229/198/229 231/199/231 233/178/233 235/200/235 237/201/237
f 239/125/239 240/152/240 242/182/242 241/183/241
f 241/183/241 242/182/242 244/184/244 243/185/243
f 243/185/243 244/184/244 246/186/246 245/187/245
f 245/187/245 246/186/246 248/188/248 247/189/247
f 242/190/242 240/164/240 250/191/250 248/192/248 246/168/246 244/193/244
f 247/189/247 248/188/248 250/194/250 249/195/249
f 249/195/249 250/194/250 240/196/240 239/197/239
f 239/174/239 241/198/241 243/199/243 245/178/245 247/200/247 249/201/249
f 251/125/251 252/152/252 254/182/254 253/183/253
f 253/183/253 254/182/254 256/184/256 255/185/255
f 255/185/255 256/184/256 258/186/258 257/187/257
f 257/187/257 258/186/258 260/188/260 259/189/259
f 254/190/254 252/164/252 262/191/262 260/192/260 258/168/258 256/193/256
f 259/189/259 260/188/260 262/194/262 261/195/261
f 261/195/261 262/194/262 252/196/252 251/197/251
f 251/174/251 253/198/253 255/199/255 257/178/257 259/200/259 261/201/261
f 263/125/263 264/152/264 266/182/266 265/183/265
f 265/183/265 266/182/266 268/184/268 267/185/267
f 267/185/267 268/184/268 270/186/270 269/187/269
f 269/187/269 270/186/270 272/188/272 271/189/271
f 266/190/266 264/164/264 274/191/274 272/192/272 270/168/270 268/193/268
f 271/189/271 272/188/272 274/194/274 273/195/273
f 273/195/273 274/194/274 264/196/264 263/197/263
f 263/174/263 265/198/265 267/199/267 269/178/269 271/200/271 273/201/273
